<?xml version="1.0" encoding="UTF-8" standalone="no"?>
<svg
   xmlns:dc="http://purl.org/dc/elements/1.1/"
   xmlns:cc="http://creativecommons.org/ns#"
   xmlns:rdf="http://www.w3.org/1999/02/22-rdf-syntax-ns#"
   xmlns:svg="http://www.w3.org/2000/svg"
   xmlns="http://www.w3.org/2000/svg"
   xmlns:sodipodi="http://sodipodi.sourceforge.net/DTD/sodipodi-0.dtd"
   xmlns:inkscape="http://www.inkscape.org/namespaces/inkscape"
   class="card"
   face="0H"
   height="3.5in"
   preserveAspectRatio="none"
   viewBox="-120 -168 240 336"
   width="2.5in"
   version="1.1"
   id="svg853"
   sodipodi:docname="zero.svg"
   inkscape:version="1.0.1 (c497b03c, 2020-09-10)">
  <metadata
     id="metadata857">
    <rdf:RDF>
      <cc:Work
         rdf:about="">
        <dc:format>image/svg+xml</dc:format>
        <dc:type
           rdf:resource="http://purl.org/dc/dcmitype/StillImage" />
      </cc:Work>
    </rdf:RDF>
  </metadata>
  <sodipodi:namedview
     pagecolor="#ffffff"
     bordercolor="#666666"
     borderopacity="1"
     objecttolerance="10"
     gridtolerance="10"
     guidetolerance="10"
     inkscape:pageopacity="0"
     inkscape:pageshadow="2"
     inkscape:window-width="1440"
     inkscape:window-height="847"
     id="namedview855"
     showgrid="false"
     inkscape:zoom="1.985119"
     inkscape:cx="114.96252"
     inkscape:cy="-80.851574"
     inkscape:window-x="0"
     inkscape:window-y="25"
     inkscape:window-maximized="1"
     inkscape:current-layer="svg853" />
  <defs
     id="defs839">
    <symbol
       id="SH0"
       viewBox="-600 -600 1200 1200"
       preserveAspectRatio="xMinYMid">
      <path
         d="M0 -300C0 -400 100 -500 200 -500C300 -500 400 -400 400 -250C400 0 0 400 0 500C0 400 -400 0 -400 -250C-400 -400 -300 -500 -200 -500C-100 -500 0 -400 -0 -300Z"
         fill="red"
         id="path833" />
    </symbol>
    <symbol
       id="VH0"
       viewBox="-500 -500 1000 1000"
       preserveAspectRatio="xMinYMid">
      <path
         d="M-175 0L-175 -285A175 175 0 0 1 175 -285L175 285A175 175 0 0 1 -175 285Z"
         stroke="red"
         stroke-width="80"
         stroke-linecap="square"
         stroke-miterlimit="1.5"
         fill="none"
         id="path836" />
    </symbol>
  </defs>
  <rect
     width="239"
     height="335"
     x="-119.5"
     y="-167.5"
     rx="12"
     ry="12"
     fill="white"
     stroke="black"
     id="rect841" />
  <g
     id="use843"
     transform="matrix(0.032,0,0,0.032,-98.400002,-140)" />
</svg>
